<?xml version="1.0" encoding="utf-8"?>
<!-- Generator: Adobe Illustrator 26.5.1, SVG Export Plug-In . SVG Version: 6.00 Build 0)  -->
<svg version="1.1" id="Capa_1" xmlns="http://www.w3.org/2000/svg" xmlns:xlink="http://www.w3.org/1999/xlink" x="0px" y="0px"
	 viewBox="0 0 595.3 841.9" style="enable-background:new 0 0 595.3 841.9;" xml:space="preserve">
<style type="text/css">
	.st0{fill:none;stroke:#000000;stroke-width:3;stroke-miterlimit:10;}
	.st1{fill:#FFFFFF;}
	.st2{fill:#0B0C0C;}
	.st3{fill:none;stroke:#0B0C0C;stroke-width:3;stroke-miterlimit:10;}
	.st4{fill:#FDFDFD;}
	.st5{fill:#060707;}
</style>
<g>
	<path class="st0" d="M214,204H71c-4.4,0-8-3.6-8-8v-65c0-4.4,3.6-8,8-8h143c4.4,0,8,3.6,8,8v65C222,200.4,218.4,204,214,204z"/>
	<circle cx="143" cy="164" r="36.5"/>
	<g>
		<g>
			<path class="st1" d="M135.3,184.5c-2-0.4-3.8-0.9-5.5-1.7c-1.7-0.7-3.3-1.7-4.8-2.8l2.6-3.4c2.2,1.6,4.4,2.7,6.6,3.5
				s4.7,1.2,7.3,1.2c3.8,0,6.7-0.7,8.8-2.1c2.1-1.4,3.1-3.3,3.1-5.8v0c0-1.5-0.4-2.8-1.3-3.7c-0.9-0.9-2-1.6-3.5-2.1
				c-1.4-0.5-3.2-0.9-5.4-1.3c-0.1,0-0.2,0-0.2,0c-0.1,0-0.1,0-0.2,0c-0.2,0-0.4,0-0.5-0.1s-0.3-0.1-0.5-0.1
				c-3.1-0.5-5.6-1.1-7.5-1.7c-1.9-0.6-3.5-1.6-4.8-3c-1.3-1.4-2-3.3-2-5.8v0c0-2.5,0.6-4.6,1.9-6.4s3.1-3.1,5.5-4
				c2.4-0.9,5.3-1.4,8.7-1.4c1.6,0,3.1,0.2,4.7,0.5c1.5,0.3,3.1,0.8,4.6,1.4c1.5,0.6,3,1.4,4.5,2.3l-2.5,3.4
				c-1.9-1.3-3.8-2.3-5.7-2.9c-1.9-0.6-3.7-1-5.6-1c-3.6,0-6.4,0.7-8.3,2.1c-2,1.4-3,3.3-3,5.8v0c0,1.5,0.5,2.7,1.5,3.6
				c1,0.9,2.3,1.5,3.8,2c1.5,0.4,3.5,0.9,6.1,1.3c0,0,0.1,0,0.2,0c0.1,0,0.1,0,0.2,0c0.1,0,0.2,0,0.3,0.1c0.1,0,0.2,0,0.3,0.1
				c2.8,0.5,5.2,1.1,7.1,1.8s3.5,1.7,4.7,3.1c1.3,1.4,1.9,3.3,1.9,5.7v0.1c0,2.5-0.7,4.6-2,6.3c-1.3,1.7-3.2,3.1-5.7,4
				s-5.5,1.4-9,1.4C139.4,185.1,137.3,184.9,135.3,184.5z M140.4,139.4h4.9v50.1h-4.9V139.4z"/>
		</g>
	</g>
	<g>
		<path class="st2" d="M219.5,195.3c0,1.8-0.4,3.5-1.3,5.2c-2.8,4.8-8.9,6.4-13.7,3.7c-3.3-1.9-5.1-5.3-5-8.9
			c-1.5,0.6-2.5,2-2.5,3.7v12.9c0,2.3,1.9,4.1,4.1,4.1h16.7c2.3,0,4.1-1.9,4.1-4.1v-12.7C222,197.4,221,196,219.5,195.3z"/>
		<path class="st3" d="M217.9,195c0.6,0,1.1,0.1,1.6,0.3c-0.1-3.4-1.8-6.7-5-8.5c-4.8-2.8-10.9-1.1-13.7,3.7
			c-0.9,1.5-1.3,3.2-1.3,4.8c0.5-0.2,1-0.3,1.5-0.3H217.9z"/>
		<path class="st2" d="M204.5,204.2c4.8,2.8,10.9,1.1,13.7-3.7c0.9-1.6,1.4-3.4,1.3-5.2c-0.5-0.2-1-0.3-1.6-0.3H201
			c-0.5,0-1,0.1-1.5,0.3C199.4,198.8,201.2,202.3,204.5,204.2z"/>
	</g>
	<ellipse class="st4" cx="209.3" cy="205.2" rx="1.8" ry="3.7"/>
	<path class="st5" d="M63,148.7c0,0,19.3-28.7,19.7-25.7c0.3,3-11.6,0-11.6,0s-8-0.5-8,12.8S63,148.7,63,148.7z"/>
	<path class="st5" d="M87.8,204.8c0,0-28.3-23.1-25.2-23.2c3.1-0.2-0.8,12.7-0.8,12.7s-1.1,8.7,12.6,9.6
		C88.1,204.8,87.8,204.8,87.8,204.8z"/>
	<path class="st5" d="M195.7,123c0,0,29.7,21.2,26.6,21.5c-3.1,0.4,0-12.8,0-12.8s0.5-8.8-13.2-8.8S195.7,123,195.7,123z"/>
</g>
</svg>
