<?xml version="1.0" encoding="utf-8"?>
<!-- Generator: Adobe Illustrator 26.5.1, SVG Export Plug-In . SVG Version: 6.00 Build 0)  -->
<svg version="1.1" id="Capa_1" xmlns="http://www.w3.org/2000/svg" xmlns:xlink="http://www.w3.org/1999/xlink" x="0px" y="0px"
	 viewBox="0 0 595.3 841.9" style="enable-background:new 0 0 595.3 841.9;" xml:space="preserve">
<style type="text/css">
	.st0{fill:none;stroke:#000000;stroke-width:3;stroke-miterlimit:10;}
	.st1{fill:#020304;stroke:#000000;stroke-width:3;stroke-miterlimit:10;}
	.st2{stroke:#000000;stroke-miterlimit:10;}
</style>
<path class="st0" d="M220.7,217.5h-38.5c-4.4,0-8.2-3.2-9-7.5c-3.2-17.6-6.4-35.1-9.6-52.7c-1-5.6,3.3-10.8,9-10.8h56.3
	c5.6,0,9.9,5,9.1,10.6c-2.7,17.6-5.4,35.1-8.2,52.7C229,214.2,225.2,217.5,220.7,217.5z"/>
<rect x="196.5" y="137.5" class="st1" width="9" height="9"/>
<path d="M231.9,101.1c-3.5-1.6-9.7,4.5-13.8,13.5c-4.1,9.1-4.5,17.7-1,19.3c3.5,1.6,9.7-4.5,13.8-13.5
	C235,111.3,235.4,102.7,231.9,101.1z M226,119.7c-1.7,2.4-3.7,3.9-4.5,3.3s-0.1-3,1.6-5.4c1.7-2.4,3.7-3.9,4.5-3.3
	C228.4,114.9,227.7,117.3,226,119.7z"/>
<path d="M183.2,113.9c-5-8.6-11.7-14-15.1-12.1c-3.3,1.9-2,10.5,2.9,19.1s11.7,14,15.1,12.1C189.5,131.1,188.2,122.6,183.2,113.9z
	 M181.6,120.4c-0.5,0.7-2.7,0-4.9-1.5s-3.6-3.4-3.1-4.1s2.7,0,4.9,1.5S182.1,119.7,181.6,120.4z"/>
<g>
	<g>
		<path class="st2" d="M199.8,109.8c-1-0.2-2-0.6-2.9-1.1s-1.7-1.1-2.5-1.8l1.4-2.2c1.1,1,2.3,1.7,3.4,2.2s2.4,0.7,3.8,0.7
			c2,0,3.5-0.4,4.6-1.3s1.6-2.1,1.6-3.7v0c0-1-0.2-1.8-0.7-2.3s-1.1-1-1.8-1.3s-1.7-0.6-2.8-0.8c0,0-0.1,0-0.1,0s-0.1,0-0.1,0
			c-0.1,0-0.2,0-0.3-0.1s-0.2,0-0.3-0.1c-1.6-0.3-2.9-0.7-3.9-1.1s-1.8-1-2.5-1.9s-1-2.1-1-3.7v0c0-1.6,0.3-2.9,1-4.1s1.6-2,2.9-2.6
			s2.8-0.9,4.5-0.9c0.8,0,1.6,0.1,2.4,0.3s1.6,0.5,2.4,0.9s1.6,0.9,2.3,1.5l-1.3,2.2c-1-0.8-2-1.5-3-1.9s-1.9-0.6-2.9-0.6
			c-1.9,0-3.3,0.4-4.3,1.3s-1.5,2.1-1.5,3.7v0c0,1,0.3,1.7,0.8,2.3s1.2,1,2,1.3s1.8,0.6,3.2,0.8c0,0,0.1,0,0.1,0s0.1,0,0.1,0
			c0.1,0,0.1,0,0.2,0s0.1,0,0.2,0.1c1.5,0.3,2.7,0.7,3.7,1.1s1.8,1.1,2.4,2s1,2.1,1,3.6v0c0,1.6-0.3,2.9-1,4s-1.7,2-3,2.5
			s-2.9,0.9-4.7,0.9C201.9,110.1,200.8,110,199.8,109.8z M202.5,81.2h2.5V113h-2.5V81.2z"/>
	</g>
</g>
</svg>
